<svg width="16" height="16" viewBox="0 0 16 16" fill="none" xmlns="http://www.w3.org/2000/svg">
<rect width="16" height="16" rx="4" fill="#2D2D2D"/>
<path d="M10 14.1902C10 14.2415 9.98367 14.2835 9.951 14.3162C9.91367 14.3488 9.87167 14.3652 9.825 14.3652L5.275 14.3652C5.22367 14.3652 5.18167 14.3488 5.149 14.3162C5.11633 14.2835 5.1 14.2415 5.1 14.1902L5.1 12.0552C5.1 11.6538 5.156 11.3248 5.268 11.0682C5.38 10.8115 5.541 10.6225 5.751 10.5012C5.95633 10.3752 6.20133 10.3122 6.486 10.3122C6.654 10.3122 6.80333 10.3448 6.934 10.4102C7.06 10.4708 7.165 10.5478 7.249 10.6412C7.333 10.7298 7.39367 10.8138 7.431 10.8932C7.515 10.7158 7.65267 10.5595 7.844 10.4242C8.03533 10.2842 8.25933 10.2142 8.516 10.2142C8.824 10.2142 9.09 10.2842 9.314 10.4242C9.53333 10.5595 9.70367 10.7602 9.825 11.0262C9.94167 11.2875 10 11.6095 10 11.9922L10 14.1902ZM9.09 13.1052L9.09 12.1322C9.09 11.9315 9.03167 11.7798 8.915 11.6772C8.79833 11.5745 8.66533 11.5232 8.516 11.5232C8.35267 11.5232 8.215 11.5768 8.103 11.6842C7.991 11.7868 7.935 11.9362 7.935 12.1322L7.935 13.1052L9.09 13.1052ZM7.046 13.1052L7.046 12.1952C7.046 12.0038 6.997 11.8615 6.899 11.7682C6.79633 11.6702 6.67033 11.6212 6.521 11.6212C6.37167 11.6212 6.25033 11.6702 6.157 11.7682C6.059 11.8615 6.01 12.0038 6.01 12.1952L6.01 13.1052L7.046 13.1052ZM10 9.12145C10 9.17278 9.98367 9.21478 9.951 9.24745C9.91367 9.28011 9.87167 9.29645 9.825 9.29645L5.275 9.29645C5.22367 9.29645 5.18167 9.28011 5.149 9.24745C5.11633 9.21478 5.1 9.17278 5.1 9.12145L5.1 8.23945C5.1 8.18811 5.11633 8.14611 5.149 8.11345C5.18167 8.08078 5.22367 8.06445 5.275 8.06445L6.829 8.06445L5.233 6.76945C5.205 6.75078 5.177 6.72045 5.149 6.67845C5.11633 6.63178 5.1 6.57111 5.1 6.49645L5.1 5.48845C5.1 5.44645 5.11633 5.41145 5.149 5.38345C5.177 5.35545 5.20967 5.34145 5.247 5.34145C5.27967 5.34145 5.30767 5.34845 5.331 5.36245L7.445 7.04245L9.769 5.23645C9.78767 5.21778 9.81567 5.20845 9.853 5.20845C9.89033 5.20845 9.92533 5.22245 9.958 5.25045C9.986 5.27845 10 5.31345 10 5.35545L10 6.39845C10 6.48245 9.98133 6.54778 9.944 6.59445C9.90667 6.63645 9.87867 6.66445 9.86 6.67845L8.131 8.06445L9.825 8.06445C9.87167 8.06445 9.91367 8.08078 9.951 8.11345C9.98367 8.14611 10 8.18811 10 8.23945L10 9.12145Z" fill="white"/>
<circle cx="9" cy="3" r="1" fill="#FF9898"/>
</svg>
